<svg width="99" height="22" viewBox="0 0 99 22" fill="none" xmlns="http://www.w3.org/2000/svg">
<g id="Group 15">
<path id="Star 1" d="M9.74622 3.75959C10.0352 2.87035 11.2932 2.87035 11.5821 3.75959L12.797 7.49867C12.9262 7.89634 13.2968 8.16559 13.715 8.16559H17.6465C18.5814 8.16559 18.9702 9.36205 18.2138 9.91162L15.0331 12.2225C14.6948 12.4683 14.5533 12.9039 14.6825 13.3016L15.8974 17.0407C16.1863 17.9299 15.1686 18.6694 14.4121 18.1198L11.2315 15.8089C10.8932 15.5631 10.4351 15.5631 10.0968 15.8089L6.91619 18.1198C6.15977 18.6694 5.142 17.9299 5.43093 17.0407L6.64583 13.3016C6.77505 12.9039 6.63349 12.4683 6.29521 12.2225L3.11456 9.91162C2.35813 9.36205 2.74688 8.16559 3.68188 8.16559H7.61338C8.03152 8.16559 8.40211 7.89634 8.53132 7.49867L9.74622 3.75959Z" fill="#FCB00F"/>
<path id="Star 2" d="M29.1257 3.75959C29.4146 2.87035 30.6726 2.87035 30.9616 3.75959L32.1765 7.49867C32.3057 7.89634 32.6763 8.16559 33.0944 8.16559H37.0259C37.9609 8.16559 38.3497 9.36205 37.5932 9.91162L34.4126 12.2225C34.0743 12.4683 33.9327 12.9039 34.062 13.3016L35.2769 17.0407C35.5658 17.9299 34.548 18.6694 33.7916 18.1198L30.6109 15.8089C30.2727 15.5631 29.8146 15.5631 29.4763 15.8089L26.2957 18.1198C25.5392 18.6694 24.5215 17.9299 24.8104 17.0407L26.0253 13.3016C26.1545 12.9039 26.0129 12.4683 25.6747 12.2225L22.494 9.91162C21.7376 9.36205 22.1263 8.16559 23.0613 8.16559H26.9928C27.411 8.16559 27.7816 7.89634 27.9108 7.49867L29.1257 3.75959Z" fill="#FCB00F"/>
<path id="Star 3" d="M48.5052 3.75959C48.7941 2.87035 50.0522 2.87035 50.3411 3.75959L51.556 7.49867C51.6852 7.89634 52.0558 8.16559 52.4739 8.16559H56.4054C57.3404 8.16559 57.7292 9.36205 56.9727 9.91162L53.7921 12.2225C53.4538 12.4683 53.3123 12.9039 53.4415 13.3016L54.6564 17.0407C54.9453 17.9299 53.9275 18.6694 53.1711 18.1198L49.9905 15.8089C49.6522 15.5631 49.1941 15.5631 48.8558 15.8089L45.6752 18.1198C44.9187 18.6694 43.901 17.9299 44.1899 17.0407L45.4048 13.3016C45.534 12.9039 45.3925 12.4683 45.0542 12.2225L41.8735 9.91162C41.1171 9.36205 41.5059 8.16559 42.4408 8.16559H46.3724C46.7905 8.16559 47.1611 7.89634 47.2903 7.49867L48.5052 3.75959Z" fill="#FCB00F"/>
<path id="Star 4" d="M67.8855 3.75959C68.1744 2.87035 69.4325 2.87035 69.7214 3.75959L70.9363 7.49867C71.0655 7.89634 71.4361 8.16559 71.8542 8.16559H75.7857C76.7207 8.16559 77.1095 9.36205 76.3531 9.91162L73.1724 12.2225C72.8341 12.4683 72.6926 12.9039 72.8218 13.3016L74.0367 17.0407C74.3256 17.9299 73.3078 18.6694 72.5514 18.1198L69.3708 15.8089C69.0325 15.5631 68.5744 15.5631 68.2361 15.8089L65.0555 18.1198C64.299 18.6694 63.2813 17.9299 63.5702 17.0407L64.7851 13.3016C64.9143 12.9039 64.7728 12.4683 64.4345 12.2225L61.2538 9.91162C60.4974 9.36205 60.8862 8.16559 61.8212 8.16559H65.7527C66.1708 8.16559 66.5414 7.89634 66.6706 7.49867L67.8855 3.75959Z" fill="#FCB00F"/>
<path id="Star 5" d="M87.2651 3.75959C87.554 2.87035 88.812 2.87035 89.1009 3.75959L90.3158 7.49867C90.4451 7.89634 90.8156 8.16559 91.2338 8.16559H95.1653C96.1003 8.16559 96.489 9.36205 95.7326 9.91162L92.552 12.2225C92.2137 12.4683 92.0721 12.9039 92.2013 13.3016L93.4162 17.0407C93.7052 17.9299 92.6874 18.6694 91.931 18.1198L88.7503 15.8089C88.412 15.5631 87.954 15.5631 87.6157 15.8089L84.435 18.1198C83.6786 18.6694 82.6608 17.9299 82.9498 17.0407L84.1647 13.3016C84.2939 12.9039 84.1523 12.4683 83.814 12.2225L80.6334 9.91162C79.877 9.36205 80.2657 8.16559 81.2007 8.16559H85.1322C85.5504 8.16559 85.9209 7.89634 86.0502 7.49867L87.2651 3.75959Z" fill="#FCB00F"/>
</g>
</svg>
