<svg width="1064" height="43" viewBox="0 0 1064 43" fill="none" xmlns="http://www.w3.org/2000/svg">
<path d="M7.26 19.375C6.284 19.375 5.396 19.151 4.596 18.703C3.796 18.247 3.104 17.619 2.52 16.819C1.944 16.019 1.5 15.095 1.188 14.047C0.876 12.991 0.72 11.863 0.72 10.663C0.72 9.46299 0.876 8.33899 1.188 7.29099C1.5 6.23499 1.944 5.30699 2.52 4.50699C3.104 3.70699 3.796 3.08299 4.596 2.63499C5.396 2.17899 6.284 1.95099 7.26 1.95099C8.236 1.95099 9.124 2.17899 9.924 2.63499C10.724 3.08299 11.408 3.70699 11.976 4.50699C12.552 5.30699 12.996 6.23499 13.308 7.29099C13.628 8.33899 13.788 9.46299 13.788 10.663C13.788 11.863 13.628 12.991 13.308 14.047C12.996 15.095 12.552 16.019 11.976 16.819C11.408 17.619 10.724 18.247 9.924 18.703C9.124 19.151 8.236 19.375 7.26 19.375ZM7.26 16.447C8.116 16.447 8.824 16.175 9.384 15.631C9.944 15.087 10.36 14.375 10.632 13.495C10.904 12.615 11.04 11.671 11.04 10.663C11.04 9.59899 10.896 8.63099 10.608 7.75899C10.32 6.87899 9.896 6.17899 9.336 5.65899C8.776 5.13899 8.084 4.87899 7.26 4.87899C6.612 4.87899 6.048 5.03899 5.568 5.35899C5.096 5.67099 4.704 6.09899 4.392 6.64299C4.08 7.18699 3.848 7.80699 3.696 8.50299C3.544 9.19099 3.468 9.91099 3.468 10.663C3.468 11.663 3.604 12.607 3.876 13.495C4.156 14.375 4.576 15.087 5.136 15.631C5.704 16.175 6.412 16.447 7.26 16.447ZM15.4678 19.063V16.447C15.9878 16.055 16.6038 15.571 17.3158 14.995C18.0278 14.411 18.7598 13.783 19.5118 13.111C20.2638 12.431 20.9598 11.751 21.5998 11.071C22.2398 10.391 22.7598 9.74299 23.1598 9.12699C23.5678 8.51099 23.7718 7.98299 23.7718 7.54299C23.7718 7.05499 23.6518 6.61099 23.4118 6.21099C23.1718 5.80299 22.8518 5.47899 22.4518 5.23899C22.0598 4.99899 21.6198 4.87899 21.1318 4.87899C20.6438 4.87899 20.1998 4.99899 19.7998 5.23899C19.3998 5.47899 19.0798 5.80299 18.8398 6.21099C18.5998 6.61099 18.4798 7.05499 18.4798 7.54299H15.5518C15.5518 6.48699 15.8078 5.53899 16.3198 4.69899C16.8318 3.85099 17.5078 3.18299 18.3478 2.69499C19.1958 2.19899 20.1238 1.95099 21.1318 1.95099C22.1558 1.95099 23.0878 2.20299 23.9278 2.70699C24.7678 3.20299 25.4398 3.87499 25.9438 4.72299C26.4478 5.57099 26.6998 6.51099 26.6998 7.54299C26.6998 8.08699 26.5998 8.63499 26.3998 9.18699C26.1998 9.73899 25.9198 10.295 25.5598 10.855C25.1998 11.415 24.7758 11.983 24.2878 12.559C23.7998 13.127 23.2598 13.711 22.6678 14.311C22.0838 14.903 21.4678 15.511 20.8198 16.135H26.7838V19.063H15.4678ZM30.6788 19.375C30.2628 19.375 29.9068 19.231 29.6108 18.943C29.3228 18.647 29.1788 18.287 29.1788 17.863C29.1788 17.455 29.3228 17.103 29.6108 16.807C29.9068 16.511 30.2628 16.363 30.6788 16.363C31.0948 16.363 31.4507 16.511 31.7467 16.807C32.0428 17.103 32.1908 17.455 32.1908 17.863C32.1908 18.287 32.0428 18.647 31.7467 18.943C31.4507 19.231 31.0948 19.375 30.6788 19.375ZM44.6664 19.063L40.3704 2.26299H43.3944L46.3224 13.747L49.2504 2.26299H51.9264L54.8544 13.747L57.7704 2.26299H60.7944L56.5224 19.063H53.1984L50.5824 8.88699L48.0024 19.063H44.6664ZM73.9554 11.479V19.063H71.0274V12.247C71.0274 11.775 70.9114 11.347 70.6794 10.963C70.4474 10.571 70.1354 10.263 69.7434 10.039C69.3594 9.80699 68.9314 9.69099 68.4594 9.69099C67.9874 9.69099 67.5554 9.80699 67.1634 10.039C66.7794 10.263 66.4714 10.571 66.2394 10.963C66.0154 11.347 65.9034 11.775 65.9034 12.247V19.063H62.9754L62.9634 1.06299H65.8914L65.9034 8.13099C66.3114 7.69899 66.7994 7.35899 67.3674 7.11099C67.9354 6.85499 68.5474 6.72699 69.2034 6.72699C70.0754 6.72699 70.8714 6.94299 71.5914 7.37499C72.3114 7.79899 72.8834 8.37099 73.3074 9.09099C73.7394 9.80299 73.9554 10.599 73.9554 11.479ZM85.1599 7.06299H88.0879V19.063H85.1599L85.0279 17.575C84.6999 18.111 84.2639 18.547 83.7199 18.883C83.1839 19.211 82.5479 19.375 81.8119 19.375C80.9239 19.375 80.0919 19.207 79.3159 18.871C78.5399 18.535 77.8559 18.071 77.2639 17.479C76.6799 16.887 76.2199 16.203 75.8839 15.427C75.5559 14.651 75.3919 13.819 75.3919 12.931C75.3919 12.075 75.5479 11.271 75.8599 10.519C76.1799 9.76699 76.6239 9.10699 77.1919 8.53899C77.7599 7.97099 78.4159 7.52699 79.1599 7.20699C79.9039 6.88699 80.7039 6.72699 81.5599 6.72699C82.3519 6.72699 83.0599 6.90299 83.6839 7.25499C84.3159 7.60699 84.8519 8.05499 85.2919 8.59899L85.1599 7.06299ZM81.7399 16.555C82.3639 16.555 82.9159 16.399 83.3959 16.087C83.8759 15.775 84.2519 15.355 84.5239 14.827C84.7959 14.291 84.9319 13.703 84.9319 13.063C84.9319 12.415 84.7959 11.827 84.5239 11.299C84.2519 10.763 83.8719 10.339 83.3839 10.027C82.9039 9.71499 82.3559 9.55899 81.7399 9.55899C81.1239 9.55899 80.5599 9.71899 80.0479 10.039C79.5439 10.351 79.1399 10.771 78.8359 11.299C78.5399 11.827 78.3919 12.415 78.3919 13.063C78.3919 13.711 78.5439 14.299 78.8479 14.827C79.1519 15.355 79.5559 15.775 80.0599 16.087C80.5719 16.399 81.1319 16.555 81.7399 16.555ZM96.9111 9.99099H94.5831V19.063H91.6551V9.99099H89.8791V7.06299H91.6551V3.29499H94.5831V7.06299H96.9111V9.99099ZM112.286 15.451L114.926 16.879C114.374 17.631 113.682 18.235 112.85 18.691C112.018 19.147 111.11 19.375 110.126 19.375C109.022 19.375 108.014 19.091 107.102 18.523C106.198 17.955 105.474 17.195 104.93 16.243C104.394 15.283 104.126 14.223 104.126 13.063C104.126 12.183 104.282 11.363 104.594 10.603C104.906 9.83499 105.334 9.16299 105.878 8.58699C106.43 8.00299 107.07 7.54699 107.798 7.21899C108.526 6.89099 109.302 6.72699 110.126 6.72699C111.11 6.72699 112.018 6.95499 112.85 7.41099C113.682 7.86699 114.374 8.47899 114.926 9.24699L112.286 10.663C112.006 10.343 111.674 10.095 111.29 9.91899C110.914 9.74299 110.526 9.65499 110.126 9.65499C109.55 9.65499 109.03 9.81499 108.566 10.135C108.102 10.447 107.734 10.863 107.462 11.383C107.19 11.895 107.054 12.455 107.054 13.063C107.054 13.663 107.19 14.223 107.462 14.743C107.734 15.255 108.102 15.667 108.566 15.979C109.03 16.291 109.55 16.447 110.126 16.447C110.542 16.447 110.938 16.359 111.314 16.183C111.69 15.999 112.014 15.755 112.286 15.451ZM125.754 7.06299H128.682V19.063H125.754L125.622 17.575C125.294 18.111 124.858 18.547 124.314 18.883C123.778 19.211 123.142 19.375 122.406 19.375C121.518 19.375 120.686 19.207 119.91 18.871C119.134 18.535 118.45 18.071 117.858 17.479C117.274 16.887 116.814 16.203 116.478 15.427C116.15 14.651 115.986 13.819 115.986 12.931C115.986 12.075 116.142 11.271 116.454 10.519C116.774 9.76699 117.218 9.10699 117.786 8.53899C118.354 7.97099 119.01 7.52699 119.754 7.20699C120.498 6.88699 121.298 6.72699 122.154 6.72699C122.946 6.72699 123.654 6.90299 124.278 7.25499C124.91 7.60699 125.446 8.05499 125.886 8.59899L125.754 7.06299ZM122.334 16.555C122.958 16.555 123.51 16.399 123.99 16.087C124.47 15.775 124.846 15.355 125.118 14.827C125.39 14.291 125.526 13.703 125.526 13.063C125.526 12.415 125.39 11.827 125.118 11.299C124.846 10.763 124.466 10.339 123.978 10.027C123.498 9.71499 122.95 9.55899 122.334 9.55899C121.718 9.55899 121.154 9.71899 120.642 10.039C120.138 10.351 119.734 10.771 119.43 11.299C119.134 11.827 118.986 12.415 118.986 13.063C118.986 13.711 119.138 14.299 119.442 14.827C119.746 15.355 120.15 15.775 120.654 16.087C121.166 16.399 121.726 16.555 122.334 16.555ZM142.065 11.479V19.063H139.137V12.247C139.137 11.775 139.021 11.347 138.789 10.963C138.557 10.571 138.245 10.263 137.853 10.039C137.469 9.80699 137.041 9.69099 136.569 9.69099C136.097 9.69099 135.665 9.80699 135.273 10.039C134.889 10.263 134.581 10.571 134.349 10.963C134.125 11.347 134.013 11.775 134.013 12.247V19.063H131.085L131.073 7.06299H134.001L134.013 8.13099C134.421 7.69899 134.909 7.35899 135.477 7.11099C136.045 6.85499 136.657 6.72699 137.313 6.72699C138.185 6.72699 138.981 6.94299 139.701 7.37499C140.421 7.79899 140.993 8.37099 141.417 9.09099C141.849 9.80299 142.065 10.599 142.065 11.479ZM156.605 6.72699C157.773 6.72699 158.837 7.01099 159.797 7.57899C160.757 8.14699 161.521 8.91099 162.089 9.87099C162.657 10.823 162.941 11.879 162.941 13.039C162.941 13.911 162.777 14.731 162.449 15.499C162.121 16.267 161.665 16.943 161.081 17.527C160.505 18.103 159.833 18.555 159.065 18.883C158.305 19.211 157.485 19.375 156.605 19.375C155.853 19.375 155.185 19.207 154.601 18.871C154.025 18.527 153.541 18.083 153.149 17.539V19.063H150.221V1.06299H153.149V8.56299C153.541 8.01899 154.025 7.57899 154.601 7.24299C155.185 6.89899 155.853 6.72699 156.605 6.72699ZM156.569 16.543C157.193 16.543 157.757 16.387 158.261 16.075C158.773 15.755 159.181 15.331 159.485 14.803C159.789 14.275 159.941 13.687 159.941 13.039C159.941 12.399 159.789 11.815 159.485 11.287C159.181 10.751 158.773 10.327 158.261 10.015C157.749 9.70299 157.185 9.54699 156.569 9.54699C155.961 9.54699 155.417 9.70699 154.937 10.027C154.457 10.339 154.081 10.763 153.809 11.299C153.537 11.827 153.401 12.407 153.401 13.039C153.401 13.687 153.537 14.279 153.809 14.815C154.081 15.343 154.457 15.763 154.937 16.075C155.417 16.387 155.961 16.543 156.569 16.543ZM170.15 19.375C169.046 19.375 168.038 19.091 167.126 18.523C166.222 17.955 165.498 17.191 164.954 16.231C164.418 15.271 164.15 14.211 164.15 13.051C164.15 12.179 164.306 11.363 164.618 10.603C164.93 9.83499 165.358 9.16299 165.902 8.58699C166.454 8.00299 167.094 7.54699 167.822 7.21899C168.55 6.89099 169.326 6.72699 170.15 6.72699C171.086 6.72699 171.942 6.92699 172.718 7.32699C173.502 7.71899 174.166 8.25899 174.71 8.94699C175.254 9.63499 175.65 10.419 175.898 11.299C176.146 12.179 176.202 13.099 176.066 14.059H167.294C167.406 14.507 167.59 14.911 167.846 15.271C168.102 15.623 168.426 15.907 168.818 16.123C169.21 16.331 169.654 16.439 170.15 16.447C170.662 16.455 171.126 16.335 171.542 16.087C171.966 15.831 172.318 15.487 172.598 15.055L175.586 15.751C175.098 16.815 174.37 17.687 173.402 18.367C172.434 19.039 171.35 19.375 170.15 19.375ZM167.198 11.863H173.102C173.014 11.383 172.826 10.951 172.538 10.567C172.258 10.175 171.91 9.86299 171.494 9.63099C171.078 9.39899 170.63 9.28299 170.15 9.28299C169.67 9.28299 169.226 9.39899 168.818 9.63099C168.41 9.85499 168.062 10.163 167.774 10.555C167.494 10.939 167.302 11.375 167.198 11.863ZM193.137 1.06299H196.065V19.063H193.137V17.563C192.753 18.099 192.269 18.535 191.685 18.871C191.101 19.207 190.425 19.375 189.657 19.375C188.785 19.375 187.969 19.211 187.209 18.883C186.449 18.555 185.777 18.103 185.193 17.527C184.617 16.943 184.165 16.271 183.837 15.511C183.509 14.751 183.345 13.935 183.345 13.063C183.345 12.191 183.509 11.375 183.837 10.615C184.165 9.85499 184.617 9.18699 185.193 8.61099C185.777 8.02699 186.449 7.57099 187.209 7.24299C187.969 6.91499 188.785 6.75099 189.657 6.75099C190.425 6.75099 191.101 6.91899 191.685 7.25499C192.269 7.58299 192.753 8.01899 193.137 8.56299V1.06299ZM189.693 16.555C190.317 16.555 190.869 16.399 191.349 16.087C191.829 15.775 192.205 15.355 192.477 14.827C192.749 14.291 192.885 13.703 192.885 13.063C192.885 12.415 192.749 11.827 192.477 11.299C192.205 10.763 191.825 10.339 191.337 10.027C190.857 9.71499 190.309 9.55899 189.693 9.55899C189.077 9.55899 188.513 9.71899 188.001 10.039C187.497 10.351 187.093 10.771 186.789 11.299C186.493 11.827 186.345 12.415 186.345 13.063C186.345 13.711 186.497 14.299 186.801 14.827C187.105 15.355 187.509 15.775 188.013 16.087C188.525 16.399 189.085 16.555 189.693 16.555ZM204.04 19.375C202.936 19.375 201.928 19.091 201.016 18.523C200.112 17.955 199.388 17.195 198.844 16.243C198.308 15.283 198.04 14.223 198.04 13.063C198.04 12.183 198.196 11.363 198.508 10.603C198.82 9.83499 199.248 9.16299 199.792 8.58699C200.344 8.00299 200.984 7.54699 201.712 7.21899C202.44 6.89099 203.216 6.72699 204.04 6.72699C205.144 6.72699 206.148 7.01099 207.052 7.57899C207.964 8.14699 208.688 8.91099 209.224 9.87099C209.768 10.831 210.04 11.895 210.04 13.063C210.04 13.935 209.884 14.751 209.572 15.511C209.26 16.271 208.828 16.943 208.276 17.527C207.732 18.103 207.096 18.555 206.368 18.883C205.648 19.211 204.872 19.375 204.04 19.375ZM204.04 16.447C204.624 16.447 205.148 16.291 205.612 15.979C206.076 15.667 206.44 15.255 206.704 14.743C206.976 14.231 207.112 13.671 207.112 13.063C207.112 12.439 206.972 11.871 206.692 11.359C206.42 10.839 206.048 10.427 205.576 10.123C205.112 9.81099 204.6 9.65499 204.04 9.65499C203.464 9.65499 202.944 9.81099 202.48 10.123C202.016 10.435 201.648 10.851 201.376 11.371C201.104 11.891 200.968 12.455 200.968 13.063C200.968 13.695 201.108 14.267 201.388 14.779C201.668 15.291 202.04 15.699 202.504 16.003C202.976 16.299 203.488 16.447 204.04 16.447ZM222.901 11.479V19.063H219.973V12.247C219.973 11.775 219.857 11.347 219.625 10.963C219.393 10.571 219.081 10.263 218.689 10.039C218.305 9.80699 217.877 9.69099 217.405 9.69099C216.933 9.69099 216.501 9.80699 216.109 10.039C215.725 10.263 215.417 10.571 215.185 10.963C214.961 11.347 214.849 11.775 214.849 12.247V19.063H211.921L211.909 7.06299H214.837L214.849 8.13099C215.257 7.69899 215.745 7.35899 216.313 7.11099C216.881 6.85499 217.493 6.72699 218.149 6.72699C219.021 6.72699 219.817 6.94299 220.537 7.37499C221.257 7.79899 221.829 8.37099 222.253 9.09099C222.685 9.80299 222.901 10.599 222.901 11.479ZM230.337 19.375C229.233 19.375 228.225 19.091 227.313 18.523C226.409 17.955 225.685 17.191 225.141 16.231C224.605 15.271 224.337 14.211 224.337 13.051C224.337 12.179 224.493 11.363 224.805 10.603C225.117 9.83499 225.545 9.16299 226.089 8.58699C226.641 8.00299 227.281 7.54699 228.009 7.21899C228.737 6.89099 229.513 6.72699 230.337 6.72699C231.273 6.72699 232.129 6.92699 232.905 7.32699C233.689 7.71899 234.353 8.25899 234.897 8.94699C235.441 9.63499 235.837 10.419 236.085 11.299C236.333 12.179 236.389 13.099 236.253 14.059H227.481C227.593 14.507 227.777 14.911 228.033 15.271C228.289 15.623 228.613 15.907 229.005 16.123C229.397 16.331 229.841 16.439 230.337 16.447C230.849 16.455 231.313 16.335 231.729 16.087C232.153 15.831 232.505 15.487 232.785 15.055L235.773 15.751C235.285 16.815 234.557 17.687 233.589 18.367C232.621 19.039 231.537 19.375 230.337 19.375ZM227.385 11.863H233.289C233.201 11.383 233.013 10.951 232.725 10.567C232.445 10.175 232.097 9.86299 231.681 9.63099C231.265 9.39899 230.817 9.28299 230.337 9.28299C229.857 9.28299 229.413 9.39899 229.005 9.63099C228.597 9.85499 228.249 10.163 227.961 10.555C227.681 10.939 227.489 11.375 227.385 11.863ZM253.301 7.06299H256.229V19.063H253.301L253.169 17.575C252.841 18.111 252.405 18.547 251.861 18.883C251.325 19.211 250.689 19.375 249.953 19.375C249.065 19.375 248.233 19.207 247.457 18.871C246.681 18.535 245.997 18.071 245.405 17.479C244.821 16.887 244.361 16.203 244.025 15.427C243.697 14.651 243.533 13.819 243.533 12.931C243.533 12.075 243.689 11.271 244.001 10.519C244.321 9.76699 244.765 9.10699 245.333 8.53899C245.901 7.97099 246.557 7.52699 247.301 7.20699C248.045 6.88699 248.845 6.72699 249.701 6.72699C250.493 6.72699 251.201 6.90299 251.825 7.25499C252.457 7.60699 252.993 8.05499 253.433 8.59899L253.301 7.06299ZM249.881 16.555C250.505 16.555 251.057 16.399 251.537 16.087C252.017 15.775 252.393 15.355 252.665 14.827C252.937 14.291 253.073 13.703 253.073 13.063C253.073 12.415 252.937 11.827 252.665 11.299C252.393 10.763 252.013 10.339 251.525 10.027C251.045 9.71499 250.497 9.55899 249.881 9.55899C249.265 9.55899 248.701 9.71899 248.189 10.039C247.685 10.351 247.281 10.771 246.977 11.299C246.681 11.827 246.533 12.415 246.533 13.063C246.533 13.711 246.685 14.299 246.989 14.827C247.293 15.355 247.697 15.775 248.201 16.087C248.713 16.399 249.273 16.555 249.881 16.555ZM262.016 4.54299V7.06299H265.292V9.99099H262.016V19.063H259.088V9.99099H257.78V7.06299H259.088V4.54299C259.088 3.85499 259.256 3.22699 259.592 2.65899C259.936 2.08299 260.396 1.62699 260.972 1.29099C261.548 0.946988 262.184 0.774988 262.88 0.774988C263.384 0.774988 263.884 0.878988 264.38 1.08699C264.876 1.29499 265.316 1.61499 265.7 2.04699L263.588 4.11099C263.516 3.97499 263.412 3.87499 263.276 3.81099C263.148 3.73899 263.016 3.70299 262.88 3.70299C262.648 3.70299 262.444 3.78699 262.268 3.95499C262.1 4.11499 262.016 4.31099 262.016 4.54299ZM274.099 9.99099H271.771V19.063H268.843V9.99099H267.067V7.06299H268.843V3.29499H271.771V7.06299H274.099V9.99099ZM281.267 19.375C280.163 19.375 279.155 19.091 278.243 18.523C277.339 17.955 276.615 17.191 276.071 16.231C275.535 15.271 275.267 14.211 275.267 13.051C275.267 12.179 275.423 11.363 275.735 10.603C276.047 9.83499 276.475 9.16299 277.019 8.58699C277.571 8.00299 278.211 7.54699 278.939 7.21899C279.667 6.89099 280.443 6.72699 281.267 6.72699C282.203 6.72699 283.059 6.92699 283.835 7.32699C284.619 7.71899 285.283 8.25899 285.827 8.94699C286.371 9.63499 286.767 10.419 287.015 11.299C287.263 12.179 287.319 13.099 287.183 14.059H278.411C278.523 14.507 278.707 14.911 278.963 15.271C279.219 15.623 279.543 15.907 279.935 16.123C280.327 16.331 280.771 16.439 281.267 16.447C281.779 16.455 282.243 16.335 282.659 16.087C283.083 15.831 283.435 15.487 283.715 15.055L286.703 15.751C286.215 16.815 285.487 17.687 284.519 18.367C283.551 19.039 282.467 19.375 281.267 19.375ZM278.315 11.863H284.219C284.131 11.383 283.943 10.951 283.655 10.567C283.375 10.175 283.027 9.86299 282.611 9.63099C282.195 9.39899 281.747 9.28299 281.267 9.28299C280.787 9.28299 280.343 9.39899 279.935 9.63099C279.527 9.85499 279.179 10.163 278.891 10.555C278.611 10.939 278.419 11.375 278.315 11.863ZM289.147 19.063L289.135 7.06299H292.063L292.075 8.13099C292.483 7.69899 292.971 7.35899 293.539 7.11099C294.107 6.85499 294.719 6.72699 295.375 6.72699C295.815 6.72699 296.255 6.79099 296.695 6.91899L295.543 9.87099C295.239 9.75099 294.935 9.69099 294.631 9.69099C294.159 9.69099 293.727 9.80699 293.335 10.039C292.951 10.263 292.643 10.571 292.411 10.963C292.187 11.347 292.075 11.775 292.075 12.247V19.063H289.147ZM301.735 25.063V22.135C302.191 22.135 302.603 22.027 302.971 21.811C303.339 21.603 303.631 21.315 303.847 20.947C304.063 20.587 304.171 20.183 304.171 19.735V7.06299H307.099V19.735C307.099 20.711 306.859 21.603 306.379 22.411C305.907 23.219 305.263 23.863 304.447 24.343C303.639 24.823 302.735 25.063 301.735 25.063ZM305.659 5.51499C305.227 5.51499 304.863 5.37499 304.567 5.09499C304.271 4.80699 304.123 4.44699 304.123 4.01499C304.123 3.59099 304.271 3.23499 304.567 2.94699C304.863 2.65899 305.223 2.51499 305.647 2.51499C306.071 2.51499 306.427 2.65899 306.715 2.94699C307.011 3.23499 307.159 3.59099 307.159 4.01499C307.159 4.44699 307.015 4.80699 306.727 5.09499C306.439 5.37499 306.083 5.51499 305.659 5.51499ZM314.97 19.375C313.866 19.375 312.858 19.091 311.946 18.523C311.042 17.955 310.318 17.195 309.774 16.243C309.238 15.283 308.97 14.223 308.97 13.063C308.97 12.183 309.126 11.363 309.438 10.603C309.75 9.83499 310.178 9.16299 310.722 8.58699C311.274 8.00299 311.914 7.54699 312.642 7.21899C313.37 6.89099 314.146 6.72699 314.97 6.72699C316.074 6.72699 317.078 7.01099 317.982 7.57899C318.894 8.14699 319.618 8.91099 320.154 9.87099C320.698 10.831 320.97 11.895 320.97 13.063C320.97 13.935 320.814 14.751 320.502 15.511C320.19 16.271 319.758 16.943 319.206 17.527C318.662 18.103 318.026 18.555 317.298 18.883C316.578 19.211 315.802 19.375 314.97 19.375ZM314.97 16.447C315.554 16.447 316.078 16.291 316.542 15.979C317.006 15.667 317.37 15.255 317.634 14.743C317.906 14.231 318.042 13.671 318.042 13.063C318.042 12.439 317.902 11.871 317.622 11.359C317.35 10.839 316.978 10.427 316.506 10.123C316.042 9.81099 315.53 9.65499 314.97 9.65499C314.394 9.65499 313.874 9.81099 313.41 10.123C312.946 10.435 312.578 10.851 312.306 11.371C312.034 11.891 311.898 12.455 311.898 13.063C311.898 13.695 312.038 14.267 312.318 14.779C312.598 15.291 312.97 15.699 313.434 16.003C313.906 16.299 314.418 16.447 314.97 16.447ZM322.581 7.06299H325.509V19.063H322.581V7.06299ZM324.069 5.51499C323.637 5.51499 323.273 5.37499 322.977 5.09499C322.681 4.80699 322.533 4.44699 322.533 4.01499C322.533 3.59099 322.681 3.23499 322.977 2.94699C323.273 2.65899 323.633 2.51499 324.057 2.51499C324.481 2.51499 324.837 2.65899 325.125 2.94699C325.421 3.23499 325.569 3.59099 325.569 4.01499C325.569 4.44699 325.425 4.80699 325.137 5.09499C324.849 5.37499 324.493 5.51499 324.069 5.51499ZM339.291 11.479V19.063H336.363V12.247C336.363 11.775 336.247 11.347 336.015 10.963C335.783 10.571 335.471 10.263 335.079 10.039C334.695 9.80699 334.267 9.69099 333.795 9.69099C333.323 9.69099 332.891 9.80699 332.499 10.039C332.115 10.263 331.807 10.571 331.575 10.963C331.351 11.347 331.239 11.775 331.239 12.247V19.063H328.311L328.299 7.06299H331.227L331.239 8.13099C331.647 7.69899 332.135 7.35899 332.703 7.11099C333.271 6.85499 333.883 6.72699 334.539 6.72699C335.411 6.72699 336.207 6.94299 336.927 7.37499C337.647 7.79899 338.219 8.37099 338.643 9.09099C339.075 9.80299 339.291 10.599 339.291 11.479ZM341.682 7.06299H344.61V19.063H341.682V7.06299ZM343.17 5.51499C342.738 5.51499 342.374 5.37499 342.078 5.09499C341.782 4.80699 341.634 4.44699 341.634 4.01499C341.634 3.59099 341.782 3.23499 342.078 2.94699C342.374 2.65899 342.734 2.51499 343.158 2.51499C343.582 2.51499 343.938 2.65899 344.226 2.94699C344.522 3.23499 344.67 3.59099 344.67 4.01499C344.67 4.44699 344.526 4.80699 344.238 5.09499C343.95 5.37499 343.594 5.51499 343.17 5.51499ZM358.393 11.479V19.063H355.465V12.247C355.465 11.775 355.349 11.347 355.117 10.963C354.885 10.571 354.573 10.263 354.181 10.039C353.797 9.80699 353.369 9.69099 352.897 9.69099C352.425 9.69099 351.993 9.80699 351.601 10.039C351.217 10.263 350.909 10.571 350.677 10.963C350.453 11.347 350.341 11.775 350.341 12.247V19.063H347.413L347.401 7.06299H350.329L350.341 8.13099C350.749 7.69899 351.237 7.35899 351.805 7.11099C352.373 6.85499 352.985 6.72699 353.641 6.72699C354.513 6.72699 355.309 6.94299 356.029 7.37499C356.749 7.79899 357.321 8.37099 357.745 9.09099C358.177 9.80299 358.393 10.599 358.393 11.479ZM369.453 7.06299H372.381V19.291C372.381 20.155 372.205 20.939 371.853 21.643C371.501 22.355 371.021 22.963 370.413 23.467C369.805 23.979 369.109 24.371 368.325 24.643C367.541 24.923 366.717 25.063 365.853 25.063C365.013 25.063 364.205 24.891 363.429 24.547C362.653 24.203 361.965 23.731 361.365 23.131C360.773 22.539 360.321 21.863 360.009 21.103L362.685 19.891C362.845 20.331 363.085 20.715 363.405 21.043C363.733 21.379 364.109 21.639 364.533 21.823C364.957 22.015 365.397 22.111 365.853 22.111C366.317 22.111 366.761 22.047 367.185 21.919C367.617 21.791 368.005 21.603 368.349 21.355C368.693 21.115 368.961 20.819 369.153 20.467C369.353 20.123 369.453 19.731 369.453 19.291V17.599C369.077 18.127 368.605 18.555 368.037 18.883C367.469 19.211 366.813 19.375 366.069 19.375C365.205 19.375 364.397 19.211 363.645 18.883C362.893 18.555 362.229 18.103 361.653 17.527C361.085 16.943 360.637 16.271 360.309 15.511C359.989 14.751 359.829 13.935 359.829 13.063C359.829 12.191 359.989 11.375 360.309 10.615C360.637 9.85499 361.085 9.18699 361.653 8.61099C362.229 8.02699 362.893 7.57099 363.645 7.24299C364.397 6.91499 365.205 6.75099 366.069 6.75099C366.813 6.75099 367.469 6.91499 368.037 7.24299C368.605 7.56299 369.077 7.98699 369.453 8.51499V7.06299ZM366.105 16.555C366.721 16.555 367.265 16.399 367.737 16.087C368.217 15.767 368.593 15.343 368.865 14.815C369.137 14.279 369.273 13.695 369.273 13.063C369.273 12.423 369.133 11.839 368.853 11.311C368.581 10.783 368.205 10.359 367.725 10.039C367.253 9.71899 366.713 9.55899 366.105 9.55899C365.505 9.55899 364.957 9.71899 364.461 10.039C363.965 10.351 363.569 10.771 363.273 11.299C362.977 11.827 362.829 12.415 362.829 13.063C362.829 13.711 362.977 14.299 363.273 14.827C363.569 15.355 363.965 15.775 364.461 16.087C364.957 16.399 365.505 16.555 366.105 16.555ZM381.034 19.063V2.26299H387.034C387.946 2.26299 388.77 2.49099 389.506 2.94699C390.25 3.40299 390.838 4.01499 391.27 4.78299C391.702 5.55099 391.918 6.39499 391.918 7.31499C391.918 8.25899 391.694 9.11499 391.246 9.88299C390.806 10.643 390.214 11.251 389.47 11.707C388.726 12.155 387.914 12.379 387.034 12.379H383.962V19.063H381.034ZM383.962 9.45099H386.722C387.138 9.45099 387.518 9.34699 387.862 9.13899C388.206 8.93099 388.478 8.65099 388.678 8.29899C388.886 7.94699 388.99 7.55499 388.99 7.12299C388.99 6.68299 388.886 6.28699 388.678 5.93499C388.478 5.58299 388.206 5.30299 387.862 5.09499C387.518 4.88699 387.138 4.78299 386.722 4.78299H383.962V9.45099ZM402.34 7.06299H405.268V19.063H402.34L402.208 17.575C401.88 18.111 401.444 18.547 400.9 18.883C400.364 19.211 399.728 19.375 398.992 19.375C398.104 19.375 397.272 19.207 396.496 18.871C395.72 18.535 395.036 18.071 394.444 17.479C393.86 16.887 393.4 16.203 393.064 15.427C392.736 14.651 392.572 13.819 392.572 12.931C392.572 12.075 392.728 11.271 393.04 10.519C393.36 9.76699 393.804 9.10699 394.372 8.53899C394.94 7.97099 395.596 7.52699 396.34 7.20699C397.084 6.88699 397.884 6.72699 398.74 6.72699C399.532 6.72699 400.24 6.90299 400.864 7.25499C401.496 7.60699 402.032 8.05499 402.472 8.59899L402.34 7.06299ZM398.92 16.555C399.544 16.555 400.096 16.399 400.576 16.087C401.056 15.775 401.432 15.355 401.704 14.827C401.976 14.291 402.112 13.703 402.112 13.063C402.112 12.415 401.976 11.827 401.704 11.299C401.432 10.763 401.052 10.339 400.564 10.027C400.084 9.71499 399.536 9.55899 398.92 9.55899C398.304 9.55899 397.74 9.71899 397.228 10.039C396.724 10.351 396.32 10.771 396.016 11.299C395.72 11.827 395.572 12.415 395.572 13.063C395.572 13.711 395.724 14.299 396.028 14.827C396.332 15.355 396.736 15.775 397.24 16.087C397.752 16.399 398.312 16.555 398.92 16.555ZM415.235 7.06299H418.343L411.779 25.063H408.671L410.843 19.063L406.523 7.06299H409.727L412.307 15.055L415.235 7.06299ZM420.034 19.063V2.26299H426.034C426.946 2.26299 427.77 2.49099 428.506 2.94699C429.25 3.40299 429.838 4.01499 430.27 4.78299C430.702 5.55099 430.918 6.39499 430.918 7.31499C430.918 8.25899 430.694 9.11499 430.246 9.88299C429.806 10.643 429.214 11.251 428.47 11.707C427.726 12.155 426.914 12.379 426.034 12.379H422.962V19.063H420.034ZM422.962 9.45099H425.722C426.138 9.45099 426.518 9.34699 426.862 9.13899C427.206 8.93099 427.478 8.65099 427.678 8.29899C427.886 7.94699 427.99 7.55499 427.99 7.12299C427.99 6.68299 427.886 6.28699 427.678 5.93499C427.478 5.58299 427.206 5.30299 426.862 5.09499C426.518 4.88699 426.138 4.78299 425.722 4.78299H422.962V9.45099ZM432.163 14.623V7.06299H435.091V13.855C435.091 14.327 435.207 14.759 435.439 15.151C435.671 15.535 435.979 15.843 436.363 16.075C436.755 16.299 437.183 16.411 437.647 16.411C438.127 16.411 438.559 16.299 438.943 16.075C439.327 15.843 439.635 15.535 439.867 15.151C440.099 14.759 440.215 14.327 440.215 13.855V7.06299H443.143L443.155 19.063H440.227L440.215 17.971C439.799 18.403 439.307 18.747 438.739 19.003C438.171 19.251 437.563 19.375 436.915 19.375C436.043 19.375 435.247 19.163 434.527 18.739C433.807 18.307 433.231 17.735 432.799 17.023C432.375 16.303 432.163 15.503 432.163 14.623ZM445.628 19.063V1.06299H448.556V19.063H445.628ZM454.98 19.279C454.356 19.239 453.752 19.115 453.168 18.907C452.592 18.691 452.08 18.399 451.632 18.031C451.184 17.663 450.84 17.223 450.6 16.711L453.072 15.655C453.168 15.815 453.324 15.987 453.54 16.171C453.756 16.347 454.012 16.495 454.308 16.615C454.612 16.735 454.944 16.795 455.304 16.795C455.608 16.795 455.896 16.755 456.168 16.675C456.448 16.587 456.672 16.455 456.84 16.279C457.016 16.103 457.104 15.875 457.104 15.595C457.104 15.299 457 15.071 456.792 14.911C456.592 14.743 456.336 14.619 456.024 14.539C455.72 14.451 455.424 14.371 455.136 14.299C454.376 14.147 453.668 13.911 453.012 13.591C452.364 13.271 451.84 12.859 451.44 12.355C451.048 11.843 450.852 11.227 450.852 10.507C450.852 9.71499 451.06 9.03099 451.476 8.45499C451.9 7.87899 452.448 7.43499 453.12 7.12299C453.8 6.81099 454.532 6.65499 455.316 6.65499C456.268 6.65499 457.14 6.85499 457.932 7.25499C458.732 7.64699 459.364 8.20299 459.828 8.92299L457.512 10.291C457.4 10.099 457.244 9.92299 457.044 9.76299C456.844 9.59499 456.616 9.45899 456.36 9.35499C456.104 9.24299 455.836 9.17899 455.556 9.16299C455.196 9.14699 454.868 9.17899 454.572 9.25899C454.276 9.33899 454.036 9.47499 453.852 9.66699C453.676 9.85899 453.588 10.115 453.588 10.435C453.588 10.739 453.708 10.967 453.948 11.119C454.188 11.263 454.476 11.375 454.812 11.455C455.156 11.535 455.484 11.623 455.796 11.719C456.5 11.951 457.16 12.235 457.776 12.571C458.4 12.907 458.9 13.319 459.276 13.807C459.652 14.295 459.832 14.879 459.816 15.559C459.816 16.335 459.584 17.015 459.12 17.599C458.656 18.175 458.056 18.615 457.32 18.919C456.592 19.223 455.812 19.343 454.98 19.279ZM466.962 19.375C465.858 19.375 464.85 19.091 463.938 18.523C463.034 17.955 462.31 17.191 461.766 16.231C461.23 15.271 460.962 14.211 460.962 13.051C460.962 12.179 461.118 11.363 461.43 10.603C461.742 9.83499 462.17 9.16299 462.714 8.58699C463.266 8.00299 463.906 7.54699 464.634 7.21899C465.362 6.89099 466.138 6.72699 466.962 6.72699C467.898 6.72699 468.754 6.92699 469.53 7.32699C470.314 7.71899 470.978 8.25899 471.522 8.94699C472.066 9.63499 472.462 10.419 472.71 11.299C472.958 12.179 473.014 13.099 472.878 14.059H464.106C464.218 14.507 464.402 14.911 464.658 15.271C464.914 15.623 465.238 15.907 465.63 16.123C466.022 16.331 466.466 16.439 466.962 16.447C467.474 16.455 467.938 16.335 468.354 16.087C468.778 15.831 469.13 15.487 469.41 15.055L472.398 15.751C471.91 16.815 471.182 17.687 470.214 18.367C469.246 19.039 468.162 19.375 466.962 19.375ZM464.01 11.863H469.914C469.826 11.383 469.638 10.951 469.35 10.567C469.07 10.175 468.722 9.86299 468.306 9.63099C467.89 9.39899 467.442 9.28299 466.962 9.28299C466.482 9.28299 466.038 9.39899 465.63 9.63099C465.222 9.85499 464.874 10.163 464.586 10.555C464.306 10.939 464.114 11.375 464.01 11.863ZM478.784 13.927C478.784 13.015 479.012 12.179 479.468 11.419C479.924 10.659 480.548 10.063 481.34 9.63099C481.732 9.42299 482.04 9.11899 482.264 8.71899C482.488 8.31099 482.6 7.86299 482.6 7.37499C482.6 6.91099 482.484 6.49099 482.252 6.11499C482.028 5.73099 481.724 5.43099 481.34 5.21499C480.956 4.99099 480.536 4.87899 480.08 4.87899C479.616 4.87899 479.192 4.99099 478.808 5.21499C478.424 5.43099 478.12 5.73099 477.896 6.11499C477.672 6.49099 477.56 6.91099 477.56 7.37499H474.632C474.632 6.37499 474.876 5.46699 475.364 4.65099C475.852 3.82699 476.508 3.17099 477.332 2.68299C478.164 2.19499 479.08 1.95099 480.08 1.95099C481.08 1.95099 481.992 2.19499 482.816 2.68299C483.64 3.17099 484.296 3.82699 484.784 4.65099C485.28 5.46699 485.528 6.37499 485.528 7.37499C485.528 8.39899 485.276 9.34299 484.772 10.207C484.276 11.071 483.592 11.739 482.72 12.211C482.408 12.379 482.16 12.615 481.976 12.919C481.8 13.223 481.712 13.559 481.712 13.927H478.784ZM480.356 19.375C479.932 19.375 479.572 19.227 479.276 18.931C478.988 18.635 478.844 18.275 478.844 17.851C478.844 17.435 478.988 17.083 479.276 16.795C479.572 16.507 479.932 16.363 480.356 16.363C480.772 16.363 481.124 16.507 481.412 16.795C481.7 17.083 481.844 17.435 481.844 17.851C481.844 18.275 481.7 18.635 481.412 18.931C481.124 19.227 480.772 19.375 480.356 19.375Z" fill="#1D1E25"/>
<rect x="1024" y="2.06299" width="40" height="40" rx="4" fill="#DCDFFF"/>
<path d="M1045 21.0624L1045 14.9938C1045 14.7277 1044.9 14.4726 1044.71 14.2844C1044.52 14.0963 1044.26 13.9906 1044 13.9905C1043.73 13.9905 1043.48 14.0962 1043.29 14.2843C1043.1 14.4724 1043 14.7276 1043 14.9937L1043 21.0623L1036.93 21.0548C1036.67 21.0548 1036.41 21.1604 1036.23 21.3486C1036.04 21.5367 1035.93 21.7918 1035.93 22.0579C1035.93 22.324 1036.04 22.5791 1036.23 22.7673C1036.41 22.9554 1036.67 23.0612 1036.93 23.0612L1043 23.0545L1043 29.1232C1043 29.255 1043.02 29.3857 1043.07 29.5077C1043.12 29.6297 1043.2 29.7405 1043.29 29.8337C1043.38 29.927 1043.49 30.0009 1043.62 30.0511C1043.74 30.1014 1043.87 30.1269 1044 30.1264C1044.13 30.127 1044.26 30.1014 1044.38 30.0512C1044.51 30.001 1044.62 29.9271 1044.71 29.8338C1044.8 29.7406 1044.88 29.6298 1044.93 29.5078C1044.98 29.3859 1045 29.2552 1045 29.1233L1045 23.0547L1051.06 23.0622C1051.2 23.0627 1051.33 23.0372 1051.45 22.9869C1051.57 22.9367 1051.68 22.8629 1051.77 22.7696C1051.87 22.6763 1051.94 22.5655 1051.99 22.4436C1052.04 22.3216 1052.07 22.1909 1052.07 22.0591C1052.07 21.9272 1052.04 21.7965 1051.99 21.6745C1051.94 21.5525 1051.87 21.4417 1051.77 21.3485C1051.68 21.2552 1051.57 21.1813 1051.45 21.1311C1051.33 21.0808 1051.2 21.0553 1051.06 21.0558L1045 21.0624Z" fill="#1D1E25"/>
</svg>
